<svg
  width="43"
  height="48"
  viewBox="0 0 43 48"
  fill="none"
  xmlns="http://www.w3.org/2000/svg"
>
  <path
    d="M 28.1284 12.5239
      C 27.0141 12.5239 26.1228 13.8552 26.1228 15.4823
      C 26.1228 17.1094 27.0141 18.4407 28.1284 18.4407
      C 29.2426 18.4407 30.134 17.1094 30.134 15.4823
      C 30.134 13.8552 29.2179 12.5239 28.1284 12.5239
      ZM 14.3861 12.5239
      C 13.2718 12.5239 12.3805 13.8552 12.3805 15.4823
      C 12.3805 17.1094 13.2718 18.4407 14.3861 18.4407
      C 15.5003 18.4407 16.3917 17.1094 16.3917 15.4823
      C 16.3917 13.8552 15.4756 12.5239 14.3861 12.5239
      ZM 41.0288 8.85054
      L 40.8803 8.82589
      V 5.2265
      C 40.8803 2.34207 38.528 0 35.6309 0
      H 6.88353
      C 3.98651 0.0246533 1.63422 2.36672 1.63422 5.2265
      V 8.80123
      L 1.48565 8.85054
      C 0.643784 8.97381 0 9.73806 0 10.5763
      V 16.4191
      C 0 17.2573 0.643784 18.0216 1.48565 18.1448
      L 1.63422 18.1695
      V 24.037
      C 1.63422 26.9214 3.98651 29.2635 6.88353 29.2635
      H 15.0794
      V 30.6441
      H 14.3861
      L 11.811 31.6795
      V 32.0493
      H 10.8453
      V 33.0601
      C 8.83964 33.1587 7.25494 34.8105 7.25494 36.8321
      V 37.9661
      H 6.85877
      C 6.38831 38.4345 6.11594 38.7057 5.64549 39.1741
      V 42.527
      L 6.85877 43.735
      H 9.4339
      L 9.95388 43.2173
      V 41.4915
      H 10.9691
      V 38.755
      C 10.9691 38.3359 10.6224 37.9661 10.1767 37.9661
      H 9.68151
      V 36.8321
      C 9.68151 36.1664 10.1767 35.5994 10.8205 35.5008
      V 36.8567
      H 11.9348
      V 40.8998
      L 13.2718 42.4283
      V 44.5239
      C 12.2319 44.5239 11.0929 44.6225 9.60723 45.9045
      V 48
      H 20.6011
      V 43.9322
      H 21.9382
      V 48
      H 32.932
      V 45.9045
      C 31.4463 44.6225 30.3073 44.5239 29.2674 44.5239
      V 42.4283
      L 30.6788 40.8998
      V 36.8567
      H 31.7435
      V 35.5008
      C 32.412 35.5747 32.9072 36.1418 32.9072 36.8321
      V 37.9661
      H 32.4368
      C 32.0158 37.9661 31.6444 38.3112 31.6444 38.755
      V 41.5408
      H 32.6596
      V 43.2666
      L 33.1796 43.7843
      H 35.7547
      C 36.2252 43.3159 36.4976 43.0447 36.968 42.5763
      V 39.2234
      L 35.7547 38.0154
      H 35.3586
      V 36.8814
      C 35.3586 34.8598 33.7491 33.208 31.7435 33.1094
      V 32.0986
      H 30.7778
      V 31.7288
      L 28.2027 30.6934
      H 27.4846
      V 29.3128
      H 35.5814
      C 38.4784 29.3128 40.8307 26.9707 40.8307 24.0863
      V 18.1695
      L 40.9793 18.1448
      C 41.8212 18.0216 42.465 17.2573 42.465 16.4191
      V 10.5763
      C 42.5145 9.73806 41.8459 8.97381 41.0288 8.85054
      ZM 39.4936 22.8536
      C 39.4936 25.1464 37.6118 27.02 35.309 27.02
      H 7.20542
      C 4.90266 27.02 3.02083 25.1464 3.02083 22.8536
      V 6.13868
      C 3.02083 3.84592 4.90266 1.97227 7.20542 1.97227
      H 35.309
      C 37.6118 1.97227 39.4936 3.84592 39.4936 6.13868
      V 22.8536
      Z"
    fill="white"
  />
</svg>
