<svg width="20" height="17" viewBox="0 0 20 17" fill="none" xmlns="http://www.w3.org/2000/svg">
<path d="M19.1094 3.07812H0.890625C0.546875 3.07812 0.375 2.90625 0.375 2.5625V1.1875C0.375 0.84375 0.546875 0.671875 0.890625 0.671875H19.1094C19.4531 0.671875 19.625 0.84375 19.625 1.1875V2.5625C19.625 2.90625 19.4531 3.07812 19.1094 3.07812ZM19.1094 9.95312H0.890625C0.546875 9.95312 0.375 9.78125 0.375 9.4375V8.0625C0.375 7.71875 0.546875 7.54688 0.890625 7.54688H19.1094C19.4531 7.54688 19.625 7.71875 19.625 8.0625V9.4375C19.625 9.78125 19.4531 9.95312 19.1094 9.95312ZM19.1094 16.8281H0.890625C0.546875 16.8281 0.375 16.6562 0.375 16.3125V14.9375C0.375 14.5938 0.546875 14.4219 0.890625 14.4219H19.1094C19.4531 14.4219 19.625 14.5938 19.625 14.9375V16.3125C19.625 16.6562 19.4531 16.8281 19.1094 16.8281Z" fill="white"/>
</svg>
