<svg
  xmlns="http://www.w3.org/2000/svg"
  xmlns:xlink="http://www.w3.org/1999/xlink"
  viewBox="0 0 1199 239"
  fill="none"
>
  <mask id="A" fill="#fff">
    <path
      d="M697 218.64s16.71 3.237 37.16 3.237h56.4c29.636 0 66.155 11.276 7.497 11.276-93.114 0 12.43-11.276 39.873-11.276H1199"
    ></path>
  </mask>
  <path
    d="M798.058 233.154v-2 2zM697 218.64l.38-1.963.042.008.687.125 2.14.36 7.9 1.102c6.68.802 15.886 1.604 26.01 1.604v4c-10.326 0-19.7-.817-26.488-1.633-3.396-.408-6.15-.816-8.06-1.124l-2.206-.372-.58-.105-.152-.03c-.017-.003-.03-.006-.04-.007s-.015-.003.365-1.967zm37.16 1.237h56.4v4h-56.4v-4zm56.4 0c7.525 0 15.47.714 22.236 1.786 6.685 1.06 12.475 2.504 15.535 4.072.77.394 1.53.876 2.083 1.48.565.617 1.17 1.675.774 2.96-.34 1.105-1.26 1.753-1.972 2.13-.78.415-1.78.748-2.945 1.03-4.622 1.12-13.558 1.818-28.214 1.818v-4c14.673 0 23.17-.712 27.27-1.706 1.016-.246 1.654-.485 2.015-.677.43-.228.16-.22.022.226-.192.623.17 1 .1.922-.08-.1-.352-.313-.958-.623-2.443-1.252-7.672-2.626-14.337-3.68-6.582-1.043-14.316-1.737-21.6-1.737v-4zm7.497 15.276c-11.654 0-20.228-.177-26.25-.487-3.01-.156-5.404-.346-7.24-.568-1.784-.217-3.195-.48-4.135-.84-.4-.153-1.113-.462-1.58-1.117-.283-.395-.5-.94-.43-1.57.056-.593.327-1.034.557-1.312.417-.503.987-.8 1.38-.997a12.32 12.32 0 0 1 1.564-.588c2.276-.71 6-1.432 10.555-2.137 18.254-2.83 51.605-5.66 65.452-5.66v4c-13.597 0-46.74 2.807-64.84 5.614-4.544.705-8.014 1.39-9.978 2.003-.484.15-.824.282-1.044.386-.278.13-.18.135-.013-.066a1.58 1.58 0 0 0 .347-.864c.046-.483-.118-.882-.3-1.135-.265-.37-.537-.404-.246-.293.446.17 1.432.39 3.19.605 1.708.207 4.002.39 6.965.544 5.92.306 14.418.482 26.043.482v4zm39.873-15.276H1199v4H837.93v-4z"
    fill="#3ca3e8"
    mask="url(#A)"
  ></path>
  <path
    d="M696.474 227.385l-17.727-3.126 3.238-18.36 17.727 3.126-3.238 18.36zm-18.444.15l-6.306-1.112 4.3-24.385 6.305 1.112-4.3 24.385z"
    stroke="#3ca3e8"
    stroke-width="2"
  ></path>
  <mask id="B" fill="#fff">
    <path
      d="M506 220.828s-3.173.762-8.658 6.395-13.046 11.16-54.13 11.16H417.17c-34.926 0-24.18-7.96-4.574-9.92s25.957-8.585-.762-8.585H0"
    ></path>
  </mask>
  <path
    d="M506.467 222.773a2 2 0 1 0-.934-3.89l.934 3.9zm-94.632-2.896v2-2zM0 217.877a2 2 0 0 0-2 2 2 2 0 0 0 2 2v-4zm506 2.95l-.47-1.944-.02.005-.026.006-.067.02-.186.057-.582.218c-.48.2-1.136.516-1.957 1.013-1.643.994-3.94 2.704-6.784 5.626l2.866 2.79c2.64-2.712 4.673-4.2 5.988-4.995.658-.397 1.137-.623 1.424-.742l.287-.11.034-.01-.024.007c-.016.004-.017.004-.484-1.94zm-10.09 5c-2.536 2.605-5.495 5.18-12.804 7.157-7.453 2.015-19.403 3.397-39.892 3.397v4c20.594 0 32.966-1.38 40.936-3.536 8.113-2.194 11.677-5.198 14.626-8.227l-2.866-2.79zm-52.696 10.554H417.17v4h26.042v-4zm-26.042 0c-8.69 0-14.398-.498-17.784-1.23-1.726-.373-2.646-.766-3.05-1.043-.2-.13-.128-.142-.05.023.104.222.105.486.04.676-.06.175-.02-.088.894-.615.802-.464 1.98-.962 3.515-1.45 3.055-.97 7.26-1.814 12.06-2.293l-.398-3.98c-5.002.5-9.492 1.387-12.874 2.46-1.684.535-3.16 1.137-4.305 1.798-1.032.597-2.23 1.482-2.675 2.774a3.06 3.06 0 0 0 .119 2.324c.328.7.87 1.21 1.413 1.582 1.058.725 2.596 1.25 4.467 1.653 3.81.822 9.857 1.32 18.628 1.32v-4zm-4.375-5.93c4.987-.5 9.198-1.3 12.295-2.246 1.542-.47 2.874-.998 3.907-1.58.924-.52 2.03-1.31 2.467-2.503a2.91 2.91 0 0 0-.056-2.183c-.3-.668-.782-1.15-1.254-1.488-.918-.66-2.223-1.117-3.727-1.46-3.076-.702-7.867-1.116-14.593-1.116v4c6.633 0 11.068.415 13.703 1.016 1.352.308 2.024.622 2.282.808.115.083.01.044-.082-.17a1.09 1.09 0 0 1-.027-.786c.088-.242.12-.05-.675.396-.687.387-1.72.814-3.114 1.24-2.772.847-6.708 1.61-11.524 2.1l.398 3.98zm-.96-12.575h-85.462v4h85.462v-4zm-85.462 0H.003c-.002 0-.003 0-.003 2l.003 2h326.37v-4z"
    fill="#3ca3e8"
    mask="url(#B)"
  ></path>
  <path
    d="M505.708 220.326a9.32 9.32 0 0 0 11.609 6.204l8.934-2.697-5.434-17.83-8.888 2.683a9.32 9.32 0 0 0-6.22 11.64zm14.435-17.02l7.228 23.676 6.124-1.875-7.228-23.676-6.124 1.875z"
    stroke="#3ca3e8"
    stroke-width="2"
  ></path>
  <path
    d="M528.255 209.345c-.185-.605.155-1.246.76-1.43l8.037-2.46c.605-.185 1.246.156 1.43.762s-.155 1.246-.76 1.43l-8.037 2.46c-.605.185-1.246-.157-1.43-.762zm2.34 7.65c-.184-.605.156-1.246.76-1.43l8.037-2.46c.605-.186 1.246.156 1.43.76s-.155 1.246-.76 1.43l-8.037 2.46a1.15 1.15 0 0 1-1.432-.762z"
    fill="#3ca3e8"
  ></path>
  <mask id="C" fill="#fff">
    <use xlink:href="#E" fill-rule="evenodd"></use>
  </mask>
  <use xlink:href="#E" fill-rule="evenodd" fill="#0a0a0c"></use>
  <path
    d="M687.092 40.497l-.392 1.96.392-1.96zm.015.003l-.392 1.96.023.004.022.004.347-1.97zm-.737-.147l-.392 1.96.392-1.96zm-1.1-.22h-2v1.64l1.608.32.392-1.96zm-170.6 0l.392 1.96 1.608-.32v-1.64h-2zm-1.1.22l.39 1.96-.39-1.96zm-.722.144l-.392-1.96.392 1.96zm-.015.003l.347 1.97.022-.004.023-.004-.392-1.96zm-.016.003l.348 1.97-.348-1.97zm0 38.618l.348-1.97-.348 1.97zm.016.003l.392-1.96-.023-.004-.022-.004-.347 1.97zm.015.003l-.393 1.96h.001l.392-1.96zm.722.144l-.392 1.96.392-1.96zm1.1.22h2v-1.64l-1.608-.32-.392 1.96zm59.467 48.93h2v-2h-2v2zm0 8.87v2h2v-2h-2zm-4.206 0v-2h-.4l-.36.146.75 1.854zm-10.3 4.168l-.75-1.854-1.25.506v1.348h2zm0 2.105v2h2v-2h-2zm-4.258 0v-2h-2v2h2zm0 4.405l.1 1.998 1.9-.094v-1.904h-2zm-1.302.064l.098 1.998-.098-1.998zm-14.575 21.778v2h2v-2h-2zm-2.607 0v-2h-.828l-.586.585 1.414 1.415zm-2.305 2.303l1.414 1.415-1.414-1.415zm-2.305 2.302L530.855 173l-.587.586v.828h2zm0 13.79h-2v.83l.587.586 1.413-1.415zm4.6 4.605l-1.414 1.415.586.585h.828v-2zm10.196 0v2h.828l.586-.585-1.414-1.415zm1.507-1.505l1.413 1.415.587-.586v-.83h-2zm0-8.445v-2h-2v2h2zm4.474 0v2h2v-2h-2zm-5.557-13.05h-2v2h2v-2zm6.22-13.613l.297 1.978-.297-1.978zm1.573-.236h2v-2.322l-2.296.344.296 1.978zm0 6.206h-2v2h2v-2zm4.908 0h2v-2h-2v2zm0 18.805h-2v.757l.5.568 1.5-1.325zm5.646 6.4l-1.498 1.324 1.498-1.324zm.344.388h2v-.757l-.502-.567-1.498 1.324zm0 11.2v2h2v-2h-2zm-8.317.867l-.592-1.9.592 1.9zm-7.85 4.525l-1.285-1.533-.715.6v.934h2zm0 7.3h-2v2h2v-2zm45.902 0v2h2v-2h-2zm0-18.1v-2h-2v2h2zm8.658 0h2v-2h-2v2zm0 18.1h-2v2h2v-2zm45.83 0v2h2v-2h-2zm0-7.3h2v-.934l-.716-.6-1.284 1.534zm-7.875-4.524l-.59 1.9.59-1.9zm-8.29-.868h-2v2h2v-2zm0-11.276l-1.475-1.35-.525.574v.777h2zm.36-.393l1.475 1.35-1.475-1.35zm5.847-6.385l1.475 1.35.525-.573v-.778h-2zm0-18.792v-2h-2v2h2zm4.69 0v2h2v-2h-2zm0-6.166l.248-1.985-2.248-.28v2.265h2zm1.54.192l.248-1.984-.248 1.984zm6.324 13.618v2h2v-2h-2zm-5.557 13.05h-2v2h2v-2zm4.474 0h2v-2h-2v2zm0 8.445h-2v.83l.587.586 1.413-1.415zm1.507 1.505l-1.414 1.415.586.585h.828v-2zm10.196 0v2h.828l.586-.585-1.414-1.415zm2.305-2.303l-1.413-1.415 1.413 1.415zm2.305-2.302l1.413 1.414.587-.585v-.83h-2zm0-13.79h2v-.83l-.587-.585-1.413 1.414zm-4.6-4.605l1.414-1.415-.586-.585h-.828v2zm-2.535 0h-2v2h2v-2zm-14.646-21.778l-.097 1.998.097-1.998zm-1.303-.063h-2v1.904l1.902.093.098-1.997zm0-4.406h2v-2h-2v2zm-4.258 0h-2v2h2v-2zm0-2.105h2v-1.348l-1.25-.506-.75 1.854zm-10.3-4.168l.75-1.854-.36-.146h-.39v2zm-4.207 0h-2v2h2v-2zm0-8.797v-2h-2v2h2zm58.962-48.93l-.392-1.96-1.608.32v1.64h2zm1.1-.22l.392 1.96-.392-1.96zm.722-.144l.392 1.96-.392-1.96zm.028-.006l-.3-1.976-.04.006-.04.008.392 1.96zm.03-.004l-.3-1.976.3 1.976zm5.41-32.234h2v-.044l-2 .044zm-5.507-6.38l.347-1.97-.347 1.97zM694 46.87h2v-.04l-2 .04zm-6.567 33.6l-.3-1.976-.04.007-.04.008.392 1.96zm-.722.144l-.392-1.96-1.608.32v1.64h2zM627.75 129.8v-2h-2v2h2zm0 6.057h-2v2h2v-2zm3.103 0l.75-1.854-.36-.146h-.4v2zm11.403 4.615h2v-1.348l-1.25-.506-.75 1.854zm0 1.658h-2v2h2v-2zm4.258 0h2v-2h-2v2zm0 4.47h-2v1.905l1.902.092.098-1.997zm15.95 21.776h-2v2h2v-2zm1.732 0l1.414-1.415-.586-.585h-.828v2zm5.413 5.408h2v-.83l-.587-.586-1.413 1.415zm0 14.925l1.413 1.415.587-.586v-.83h-2zm-5.413 5.408v2h.828l.586-.585-1.414-1.415zm-11.33 0l-1.414 1.415.586.585h.828v-2zm-2.3-2.307h-2v.83l.587.586 1.413-1.415zm0-7.643h2v-2h-2v2zm-4.474 0h-2v2h2v-2zm5.557-15.79v2h2v-2h-2zm-3.754-10.54l.728-1.863-.728 1.863zm-1.37-.348l.248-1.985-2.248-.28v2.266h2zm0 5.984v2h2v-2h-2zm-4.69 0v-2h-2v2h2zm0 17.955l1.475 1.35.525-.573v-.777h-2zm-6.207 6.778l-1.475-1.35-.525.573v.778h2zm0 9.373h-2v2h2v-2zm16.166 6.13h2v-.912l-.69-.598-1.31 1.5zm0 9.302v2h2v-2h-2zm-48.57 0h-2v2h2v-2zm0-18.1h2v-2h-2v2zm-5.918 0v-2h-2v2h2zm0 18.1v2h2v-2h-2zm-48.642 0h-2v2h2v-2zm0-9.302l-1.31-1.5-.69.598v.912h2zm16.166-6.13v2h2v-2h-2zm0-9.3h2v-.757l-.502-.568-1.498 1.325zm-6-6.778h-2v.757l.5.567 1.5-1.324zm0-17.954h2v-2h-2v2zm-4.908 0h-2v2h2v-2zm0-5.985h2v-2.322l-2.296.344.296 1.978zm-1.37.375l-.753-1.853.753 1.853zm-3.682 10.513h-2v2h2v-2zm5.557 15.79v2h2v-2h-2zm-4.474 0v-2h-2v2h2zm0 7.643l1.413 1.415.587-.586v-.83h-2zm-2.3 2.307v2h.828l.586-.585-1.414-1.415zm-11.33 0l-1.414 1.415.586.585h.828v-2zm-5.413-5.407h-2v.828l.587.586 1.413-1.414zm0-14.926l-1.413-1.415-.587.586v.83h2zm5.413-5.408v-2h-.828l-.586.585 1.414 1.415zm1.804 0v2h2v-2h-2zm15.877-21.776l.098 1.997 1.902-.093v-1.904h-2zm0-4.47v-2h-2v2h2zm4.258 0v2h2v-2h-2zm0-1.658l-.75-1.854-1.25.506v1.348h2zm11.403-4.615v-2h-.39l-.36.146.75 1.854zm3.103 0v2h2v-2h-2zm0-6.13h2v-2h-2v2zM513.29 80.614h2v-1.64l-1.608-.32-.392 1.96zm-.722-.144l.392-1.96-.022-.004-.022-.004-.348 1.97zm0-41.316l.348 1.97.022-.004.022-.004-.392-1.96zm.722-.144l.392 1.96 1.608-.32v-1.64h-2zm173.35 0h-2v1.64l1.608.32.392-1.96zm.72.144l-.39 1.96.022.004.022.004.347-1.97zm-8.153 63.525h-2v2h2v-2zm.017 0l1.993.16.175-2.16h-2.168v2zm1.374 0l-1.995-.148 1.995.148zm-.02-1.37h-2v2h2v-2zm.072 0h2v-2h-2v2zm6.05-58.85l.015.003.784-3.922-.015-.003-.784 3.923zm-.722-.144l.722.144.784-3.922-.722-.144-.784 3.922zm-1.1-.22l1.1.22.784-3.922-1.1-.22-.784 3.922zm-1.608-3.085v1.123h4V39.01h-4zm0-15.863V39.01h4V23.146h-4zM663.473 3.37c10.85 0 19.796 8.884 19.796 19.776h4c0-13.112-10.748-23.776-23.796-23.776v4zm-127.018 0h127.018v-4H536.455v4zM516.66 23.146c0-10.833 8.888-19.776 19.796-19.776v-4c-13.122 0-23.796 10.738-23.796 23.776h4zm0 15.863V23.146h-4V39.01h4zm0 1.123V39.01h-4v1.123h4zm-2.7 2.18l1.102-.22-.784-3.922-1.1.22.783 3.922zm-.72.144l.72-.144-.783-3.922-.722.144.784 3.922zm-.015.003l.015-.003-.784-3.922-.015.003.784 3.922zm-.06.01l.015-.003-.695-3.94-.015.003.695 3.94zm-3.783 4.396c0-2 1.672-4.024 3.783-4.396l-.695-3.94c-3.975.7-7.088 4.346-7.088 8.336h4zm0 25.886V46.87h-4v25.886h4zm3.783 4.397c-2.13-.375-3.783-2.34-3.783-4.397h-4c0 4.065 3.116 7.635 7.088 8.336l.695-3.94zm.015.003l-.015-.003-.695 3.94.015.003.695-3.94zm.06.01l-.015-.003-.785 3.922.015.003.785-3.922zm.72.144l-.72-.144-.784 3.922.722.144.783-3.922zm1.102.22l-1.102-.22-.783 3.922 1.1.22.784-3.922zm1.608 3.085V79.49h-4v1.123h4zm0 26.03v-26.03h-4v26.03h4zm19.796 19.776c-10.85 0-19.796-8.884-19.796-19.776h-4c0 13.113 10.748 23.776 23.796 23.776v-4zm36.3 0h-36.3v4h36.3v-4zm1.37 0h-1.37v4h1.37v-4zm2 3.37v-1.37h-4v1.37h4zm0 6.13v-6.13h-4v6.13h4zm0 1.37v-1.37h-4v1.37h4zm-3.37 2h1.37v-4h-1.37v4zm-2.836 0h2.836v-4h-2.836v4zm-9.55 4.022l10.3-4.168-1.5-3.708-10.3 4.168 1.5 3.708zm1.25-1.12v-.735h-4v.735h4zm0 1.37v-1.37h-4v1.37h4zm-3.37 2h1.37v-4h-1.37v4zm-2.888 0h2.888v-4h-2.888v4zm2 1.1v-3.1h-4v3.1h4zm0 1.304v-1.304h-4v1.304h4zm-3.204 2.062l1.303-.064-.197-3.995-1.303.064.197 3.995zm-12.673 13.362c0-7.14 5.66-13.018 12.673-13.362l-.197-3.995c-9.14.45-16.476 8.08-16.476 17.357h4zm0 5.048v-5.048h-4v5.048h4zm0 1.37v-1.37h-4v1.37h4zm-3.37 2h1.37v-4h-1.37v4zm-1.237 0h1.237v-4h-1.237v4zm-.89 1.718l2.305-2.303-2.828-2.83-2.305 2.303 2.828 2.83zm-2.305 2.302l2.305-2.302-2.828-2.83-2.304 2.303 2.827 2.83zm.586 12.376v-13.79h-4v13.79h4zm4.024 3.19l-4.6-4.606-2.827 2.83 4.61 4.605 2.828-2.83zm8.782-.586h-10.196v4h10.196v-4zm.093-.92l-1.506 1.506 2.827 2.83 1.506-1.505-2.827-2.83zm-.586-5.66v7.075h4v-7.075h-4zm0-1.37v1.37h4v-1.37h-4zm3.37-2h-1.37v4h1.37v-4zm3.104 0h-3.104v4h3.104v-4zm-2-8.96v10.96h4V171.9h-4zm-.094-.09c.02 0 .03.003.038.006s.018.01.028.02c.02.02.028.044.028.065h4c0-2.22-1.794-4.09-4.094-4.09v4zm-2.093 0h2.093v-4h-2.093v4zm-1.37 0h1.37v-4h-1.37v4zm-2-3.37v1.37h4v-1.37h-4zm0-5.048v5.048h4v-5.048h-4zm7.923-9.173c-4.506.675-7.923 4.517-7.923 9.173h4c0-2.638 1.93-4.83 4.516-5.217l-.593-3.956zm1.573-.236l-1.573.236.593 3.956 1.573-.236-.593-3.956zm2.296 3.57v-1.59h-4v1.59h4zm0 4.615v-4.615h-4v4.615h4zm1.538-2H555.3v4h3.538v-4zm1.37 0h-1.37v4h1.37v-4zm2 3.37v-1.37h-4v1.37h4zm0 17.435v-17.435h-4v17.435h4zm5.145 5.065l-5.647-6.39-2.997 2.65 5.647 6.39 2.997-2.65zm.343.39l-.343-.39-2.997 2.65.343.39 2.997-2.65zm.502 1.843v-.52h-4v.52h4zm0 9.3v-9.3h-4v9.3h4zm0 1.37v-1.37h-4v1.37h4zm-3.37 2h1.37v-4h-1.37v4zm-6.354.777c2.155-.668 4.15-.777 6.354-.777v-4c-2.33 0-4.805.108-7.54.957l1.185 3.82zm-7.158 4.148c2.785-2.333 5.127-3.517 7.158-4.148l-1.185-3.82c-2.6.807-5.403 2.272-8.542 4.902l2.57 3.066zm.716 5.766v-7.3h-4v7.3h4zm43.902-2h-45.902v4h45.902v-4zm-2-14.73v16.73h4V194.9h-4zm0-1.37v1.37h4v-1.37h-4zm3.37-2h-1.37v4h1.37v-4zm5.918 0h-5.918v4h5.918v-4zm1.37 0h-1.37v4h1.37v-4zm2 3.37v-1.37h-4v1.37h4zm0 16.73V194.9h-4v16.73h4zm43.83-2h-45.83v4h45.83v-4zm-2-5.3v7.3h4v-7.3h-4zm-6.466-2.614c2.043.632 4.4 1.818 7.182 4.147l2.568-3.067c-3.14-2.63-5.96-4.095-8.568-4.9l-1.182 3.82zm-6.33-.778c2.164 0 4.163.108 6.33.778l1.182-3.82c-2.743-.848-5.218-.957-7.512-.957v4zm-1.37 0h1.37v-4h-1.37v4zm-2-3.37v1.37h4v-1.37h-4zm0-9.373v9.373h4v-9.373h-4zm0-.533v.533h4v-.533h-4zm.885-1.743l-.36.392 2.95 2.702.36-.393-2.95-2.7zm5.847-6.385l-5.847 6.385 2.95 2.7 5.847-6.385-2.95-2.7zm-.525-16.072v17.422h4v-17.422h-4zm0-1.37v1.37h4v-1.37h-4zm3.37-2h-1.37v4h1.37v-4zm3.32 0h-3.32v4h3.32v-4zm-2-2.614v4.614h4v-4.614h-4zm0-1.552v1.552h4v-1.552h-4zm3.788-1.792l-1.54-.193-.496 3.97 1.54.193.496-3.97zm8.076 9.184c0-4.646-3.494-8.612-8.076-9.184l-.496 3.97c2.57.32 4.572 2.575 4.572 5.215h4zm0 5.048v-5.048h-4v5.048h4zm0 1.37v-1.37h-4v1.37h4zm-3.37 2h1.37v-4h-1.37v4zm-2.093 0h2.093v-4h-2.093v4zm-.094.09c0-.018.003-.028.006-.034s.01-.018.02-.028c.02-.02.045-.03.07-.03v-4c-2.22 0-4.094 1.793-4.094 4.09h4zm0 10.96v-10.96h-4v10.96h4zm1.104-2h-3.104v4h3.104v-4zm1.37 0h-1.37v4h1.37v-4zm2 3.37v-1.37h-4v1.37h4zm0 7.075v-7.075h-4v7.075h4zm.92.1l-1.506-1.505-2.827 2.83 1.506 1.505 2.827-2.83zm8.783-.585H653.43v4h10.196v-4zm.892-1.718l-2.305 2.303 2.827 2.83 2.305-2.303-2.827-2.83zm2.304-2.302l-2.304 2.302 2.827 2.83 2.304-2.303-2.827-2.83zm-.586-12.376v13.79h4v-13.79h-4zm-4.023-3.19l4.61 4.606 2.827-2.83-4.61-4.606-2.827 2.83zm.248.586h1.165v-4h-1.165v4zm-1.37 0h1.37v-4h-1.37v4zm-2-3.37v1.37h4v-1.37h-4zm0-5.048v5.048h4v-5.048h-4zm-12.743-13.362c7.092.345 12.743 6.23 12.743 13.362h4c0-9.28-7.338-16.91-16.548-17.358l-.195 3.996zm-1.304-.064l1.304.064.195-3.996-1.304-.063-.195 3.995zm-1.902-3.302v1.305h4v-1.305h-4zm0-3.1v3.1h4v-3.1h-4zm-.888 2h2.888v-4h-2.888v4zm-1.37 0h1.37v-4h-1.37v4zm-2-3.37v1.37h4v-1.37h-4zm0-.735v.735h4v-.735h-4zm-9.05-2.314l10.3 4.168 1.5-3.708-10.3-4.168-1.5 3.708zm-2.086.146h2.837v-4h-2.837v4zm-1.37 0h1.37v-4h-1.37v4zm-2-3.37v1.37h4v-1.37h-4zm0-6.057v6.057h4V129.8h-4zm0-1.37v1.37h4v-1.37h-4zm3.37-2h-1.37v4h1.37v-4zm35.796 0H627.75v4h35.796v-4zm19.796-19.776c0 10.834-8.888 19.776-19.796 19.776v4c13.122 0 23.796-10.738 23.796-23.776h-4zm0-26.03v26.03h4v-26.03h-4zm0-1.123v1.123h4V79.49h-4zm2.7-2.18l-1.102.22.784 3.922 1.1-.22-.783-3.922zm.72-.144l-.72.144.783 3.922.722-.144-.784-3.922zm.028-.006l-.028.006.784 3.922.028-.006-.784-3.922zm.11-.02l-.03.004.62 3.952.028-.004-.62-3.952zm3.72-4.386c0 2.103-1.692 4.068-3.72 4.386l.62 3.952c4-.625 7.1-4.28 7.1-8.338h-4zm0-25.872v25.872h4V46.882h-4zm-3.855-4.4c2.098.37 3.8 2.395 3.855 4.454l4-.088c-.087-3.972-3.19-7.606-7.16-8.306l-.695 3.94zm-.015-.003l.015.003.695-3.94-.016-.003-.694 3.94zM696 72.755V46.87h-4v25.886h4zm-8.258 9.69c4.662-.73 8.258-4.965 8.258-9.69h-4c0 2.773-2.178 5.316-4.877 5.74l.62 3.952zm-.64.13l.722-.144-.784-3.922-.722.144.784 3.922zm1.608 24.07v-26.03h-4v26.03h4zM663.545 131.8c13.88 0 25.166-11.353 25.166-25.146h-4c0 11.59-9.5 21.146-21.166 21.146v4zm-34.426 0h34.426v-4H629.12v4zm-1.37 0h1.37v-4h-1.37v4zm2-.63v-1.37h-4v1.37h4zm0 3.317v-3.317h-4v3.317h4zm0 1.37v-1.37h-4v1.37h4zm-.63-2h-1.37v4h1.37v-4zm1.733 0h-1.733v4h1.733v-4zm12.153 4.76l-11.402-4.615-1.5 3.708 11.403 4.615 1.5-3.708zm1.25 2.142v-.288h-4v.288h4zm0 1.37v-1.37h-4v1.37h4zm-.63-2h-1.37v4h1.37v-4zm1.518 0h-1.518v4h1.518v-4zm1.37 0h-1.37v4h1.37v-4zm2 3.37v-1.37h-4v1.37h4zm0 3.1v-3.1h-4v3.1h4zm15.95 16.728c0-10.014-7.916-18.242-17.852-18.726l-.195 3.995c7.82.38 14.047 6.864 14.047 14.73h4zm0 3.678v-3.678h-4v3.678h4zm0 1.37v-1.37h-4v1.37h4zm-.63-2h-1.37v4h1.37v-4zm.362 0h-.362v4h.362v-4zm6.826 5.993l-5.412-5.408-2.827 2.83 5.412 5.408 2.827-2.83zm.587 16.34v-14.925h-4V188.7h4zm-6 6.823l5.412-5.408-2.827-2.83-5.412 5.407 2.827 2.83zm-12.744.585h11.33v-4h-11.33v4zm-3.723-2.892l2.31 2.307 2.827-2.83-2.31-2.307-2.827 2.83zm-.587-7.688v6.273h4v-6.273h-4zm0-1.37v1.37h4v-1.37h-4zm.63 2h1.37v-4h-1.37v4zm-1.734 0h1.734v-4h-1.734v4zm-1.37 0h1.37v-4h-1.37v4zm-2-3.37v1.37h4v-1.37h-4zm0-10.96v10.96h4v-10.96h-4zm5.464-5.46c-2.952 0-5.464 2.38-5.464 5.46h4c0-.814.663-1.46 1.464-1.46v-4zm.723 0h-.723v4h.723v-4zm1.37 0h-1.37v4h1.37v-4zm-2 .63v1.37h4v-1.37h-4zm0-3.678v3.678h4v-3.678h-4zm-2.482-3.63c1.45.567 2.482 2 2.482 3.63h4c0-3.315-2.087-6.206-5.026-7.355l-1.456 3.725zm-.9-.226a3.75 3.75 0 0 1 .89.226l1.456-3.725c-.585-.23-1.206-.39-1.85-.47l-.496 3.97zm2.248-.6v-1.384h-4v1.384h4zm0 3.23v-3.23h-4v3.23h4zm0 1.37v-1.37h-4v1.37h4zm-3.37 2h1.37v-4h-1.37v4zm-1.95 0h1.95v-4h-1.95v4zm-1.37 0h1.37v-4h-1.37v4zm2-.63v-1.37h-4v1.37h4zm0 16.585v-16.585h-4v16.585h4zm-6.732 8.128l6.207-6.778-2.95-2.7-6.207 6.778 2.95 2.7zm.525 6.653v-8.003h-4v8.003h4zm0 1.37v-1.37h-4v1.37h4zm15.477 4.62c-3.465-3.006-6.6-4.688-9.56-5.6-2.94-.91-5.577-1.018-7.916-1.018v4c2.208 0 4.37.108 6.735.84 2.353.728 5.018 2.1 8.12 4.8l2.62-3.02zm.69 9.442v-7.932h-4v7.932h4zm0 1.37v-1.37h-4V213h4zm-3.37 2h1.37v-4h-1.37v4zm-45.83 0h45.83v-4h-45.83v4zm-1.37 0h1.37v-4h-1.37v4zm-2-3.37V213h4v-1.37h-4zm0-15.36v15.36h4v-15.36h-4zm0-1.37v1.37h4v-1.37h-4zm.63 2h1.37v-4h-1.37v4zm-3.178 0h3.178v-4h-3.178v4zm-1.37 0h1.37v-4h-1.37v4zm2-.63v-1.37h-4v1.37h4zm0 15.36v-15.36h-4v15.36h4zm0 1.37v-1.37h-4V213h4zm-3.37 2h1.37v-4h-1.37v4zm-45.902 0h45.902v-4h-45.902v4zm-1.37 0h1.37v-4h-1.37v4zm-2-3.37V213h4v-1.37h-4zm0-7.932v7.932h4v-7.932h-4zm18.166-8.13c-2.373 0-5.012.108-7.945 1.02-2.944.913-6.07 2.597-9.532 5.6l2.62 3.02c3.106-2.693 5.754-4.074 8.096-4.8 2.354-.73 4.513-.84 6.76-.84v-4zm-2 .63v1.37h4v-1.37h-4zm0-7.93v7.93h4v-7.93h-4zm-5.49-5.454l6 6.778 2.997-2.65-6-6.778-2.997 2.65zm-.5-17.908V181.5h4v-16.584h-4zm0-1.37v1.37h4v-1.37h-4zm.63 2h1.37v-4h-1.37v4zm-2.168 0h2.168v-4H555.3v4zm-1.37 0h1.37v-4h-1.37v4zm-2-3.37v1.37h4v-1.37h-4zm0-3.225v3.225h4v-3.225h-4zm0-1.4v1.4h4v-1.4h-4zm1.384 2.227c.286-.116.592-.2.913-.25l-.593-3.956a7.97 7.97 0 0 0-1.827.5l1.507 3.705zm-2.436 3.613a3.89 3.89 0 0 1 2.436-3.613l-1.507-3.705a7.89 7.89 0 0 0-4.929 7.318h4zm0 3.678v-3.678h-4v3.678h4zm0 1.37v-1.37h-4v1.37h4zm-.63-2h-1.37v4h1.37v-4zm.723 0h-.723v4h.723v-4zm5.464 5.46c0-2.954-2.385-5.46-5.464-5.46v4c.82 0 1.464.665 1.464 1.46h4zm0 10.96V171.9h-4v10.96h4zm0 1.37v-1.37h-4v1.37h4zm-3.37 2h1.37v-4h-1.37v4zm-1.734 0h1.734v-4h-1.734v4zm-1.37 0h1.37v-4h-1.37v4zm2-.63v-1.37h-4v1.37h4zm0 6.273V185.6h-4v6.273h4zm-2.896 3.722l2.31-2.307-2.827-2.83-2.31 2.308 2.827 2.83zm-12.744.585h11.33v-4h-11.33v4zm-6.826-5.993l5.412 5.408 2.828-2.83-5.413-5.408-2.827 2.83zm-.587-16.34v14.926h4v-14.926h-4zm6-6.823l-5.412 5.408 2.827 2.83 5.413-5.407-2.828-2.83zm1.848-.585h-.434v4h.434v-4zm1.37 0h-1.37v4h1.37v-4zm-2 .63v1.37h4v-1.37h-4zm0-3.678v3.678h4v-3.678h-4zm17.78-18.726c-9.868.485-17.78 8.717-17.78 18.726h4c0-7.873 6.234-14.35 13.975-14.73l-.196-3.995zm-1.902-1.103v3.1h4v-3.1h-4zm0-1.37v1.37h4v-1.37h-4zm3.37-2h-1.37v4h1.37v-4zm1.518 0h-1.518v4h1.518v-4zm1.37 0h-1.37v4h1.37v-4zm-2 .63v1.37h4v-1.37h-4zm0-.288v.288h4v-.288h-4zm12.653-6.47L557.5 138.68l1.5 3.708 11.402-4.615-1.5-3.708zm2.483-.146h-1.733v4h1.733v-4zm1.37 0h-1.37v4h1.37v-4zm-2 .63v1.37h4v-1.37h-4zm0-3.39v3.39h4v-3.39h-4zm0-1.37v1.37h4v-1.37h-4zm.63 2h1.37v-4h-1.37v4zm-34.93 0h34.93v-4h-34.93v4zm-25.166-25.146c0 13.873 11.366 25.146 25.166 25.146v-4c-11.603 0-21.166-9.493-21.166-21.146h-4zm0-26.03v26.03h4v-26.03h-4zm.886 1.817l.722.144.784-3.922-.722-.144-.784 3.922zM504 72.755c0 4.756 3.62 8.874 8.22 9.685l.695-3.94c-2.76-.487-4.915-3.003-4.915-5.746h-4zm0-25.886v25.886h4V46.87h-4zm8.22-9.685c-4.612.813-8.22 5.012-8.22 9.685h4c0-2.682 2.165-5.26 4.915-5.746l-.695-3.94zm.677-.136l-.722.144.784 3.922.722-.144-.784-3.922zm-1.608-13.902V39.01h4V23.146h-4zM536.455-2c-13.88 0-25.166 11.353-25.166 25.146h4c0-11.588 9.5-21.146 21.166-21.146v-4zm127.018 0H536.455v4h127.018v-4zm25.166 25.146C688.64 9.273 677.273-2 663.473-2v4c11.602 0 21.166 9.494 21.166 21.146h4zm0 15.863V23.146h-4V39.01h4zm-.887-1.817l-.72-.144-.784 3.922.722.144.783-3.922zM696 46.83c-.09-4.637-3.674-8.83-8.292-9.646l-.695 3.94c2.743.484 4.934 3.067 4.987 5.785l4-.078zm-18.793 54.48v1.37h4v-1.37h-4zm0-74.196v74.196h4V27.112h-4zM662.03 11.95c8.318 0 15.178 6.858 15.178 15.16h4c0-10.515-8.655-19.16-19.178-19.16v4zm-124.203 0H662.03v-4H537.826v4zm-15.177 15.16c0-8.303 6.86-15.16 15.177-15.16v-4c-10.523 0-19.177 8.646-19.177 19.16h4zm0 74.196V27.112h-4v74.196h4zm15.177 15.162c-8.317 0-15.177-6.86-15.177-15.162h-4c0 10.516 8.654 19.162 19.177 19.162v-4zm124.275 0H537.826v4H662.1v-4zm15.13-13.953c-.626 7.752-7.222 13.953-15.13 13.953v4c10.012 0 18.324-7.822 19.116-17.63l-3.987-.322zm1.977 2.16h.017v-4h-.017v4zm-.604-2.148c-.634 8.502-7.843 15.3-16.502 15.3v4c10.77 0 19.703-8.44 20.49-19.013l-3.99-.297zm-16.502 15.3H537.826v4H662.1v-4zm-124.275 0c-9.072 0-16.547-7.47-16.547-16.532h-4c0 11.274 9.27 20.532 20.547 20.532v-4zm-16.547-16.532V27.112h-4v74.196h4zm0-74.196c0-9.06 7.475-16.53 16.547-16.53v-4c-11.278 0-20.547 9.258-20.547 20.53h4zm16.547-16.53H662.03v-4H537.826v4zm124.203 0c9.073 0 16.548 7.47 16.548 16.53h4c0-11.273-9.27-20.53-20.548-20.53v4zm16.548 16.53v72.827h4V27.112h-4zm0 72.827v1.37h4v-1.37h-4zm2 3.37h.072v-4h-.072v4zm-1.928-2a16.49 16.49 0 0 1-.046 1.222l3.99.297a20.11 20.11 0 0 0 .057-1.519h-4z"
    fill="#2d8fe2"
    mask="url(#C)"
  ></path>
  <path
    d="M622.543 68.645c0-3.436.93-6.517 2.394-8.7 1.467-2.2 3.393-3.413 5.4-3.413s3.943 1.214 5.4 3.413c1.464 2.193 2.394 5.275 2.394 8.7s-.93 6.517-2.394 8.7c-1.467 2.2-3.393 3.413-5.4 3.413-1.98 0-3.907-1.2-5.386-3.415-1.473-2.195-2.42-5.276-2.42-8.708zm-60.766 0c0-3.436.93-6.517 2.394-8.7 1.467-2.2 3.393-3.413 5.4-3.413s3.944 1.214 5.4 3.413c1.463 2.193 2.394 5.275 2.394 8.7s-.947 6.513-2.42 8.708c-1.48 2.204-3.406 3.415-5.385 3.415s-3.907-1.2-5.385-3.415c-1.473-2.195-2.42-5.276-2.42-8.708z"
    fill="#3ca3e8"
    stroke="#3ca3e8"
    stroke-width="2"
  ></path>
  <defs>
    <path
      id="E"
      d="M687.107 40.5l-1.838-.367V23.146c0-12.002-9.847-21.776-21.796-21.776H536.455c-12.015 0-21.796 9.84-21.796 21.776v16.987l-1.838.367-.016.003c-3.042.537-5.435 3.37-5.435 6.366v25.886c0 3.06 2.385 5.828 5.435 6.366l.016.003 1.838.367v27.153c0 12.002 9.847 21.776 21.796 21.776h37.67v8.87h-4.206l-10.3 4.168v2.105h-4.258v4.405l-1.302.064c-8.077.397-14.575 7.15-14.575 15.36v6.418h-2.607l-4.6 4.605v13.79l4.6 4.605h10.196l1.507-1.505v-8.445h4.474V171.9c0-1.136-.92-2.09-2.094-2.09h-3.463v-6.418c0-3.647 2.674-6.664 6.22-7.195l1.573-.236v6.206h4.908v18.805l6 6.778v11.2h-1.37c-2.266 0-4.502.11-6.947.867-2.315.72-4.888 2.043-7.85 4.525v7.3h45.902v-18.1h8.658v18.1h45.83v-7.3c-2.96-2.48-5.55-3.805-7.875-4.524-2.455-.76-4.692-.868-6.92-.868h-1.37v-11.276l6.207-6.778v-18.792h4.69v-6.166l1.54.192c3.576.447 6.324 3.557 6.324 7.2v6.418h-3.463c-1.14 0-2.094.92-2.094 2.09v10.96h4.474v8.445l1.507 1.505h10.196l4.6-4.605v-13.79l-4.6-4.605h-2.535v-6.418c0-8.206-6.494-14.963-14.646-15.36l-1.303-.063V143.5h-4.258v-2.105l-10.3-4.168h-4.207v-8.797h37.166c12.015 0 21.796-9.84 21.796-21.776V79.49l1.88-.374c3.008-.47 5.41-3.28 5.41-6.362V46.882c-.066-3.015-2.473-5.845-5.507-6.38l-.016-.003zM694 46.87v25.886c0 3.75-2.887 7.138-6.567 7.715l-.722.144v26.03c0 12.69-10.392 23.146-23.166 23.146H627.75v6.057h3.103l11.403 4.615v1.658h4.258v4.47c8.877.432 15.95 7.787 15.95 16.728v5.048h1.732l5.413 5.408V188.7l-5.413 5.408h-11.33l-2.3-2.307v-7.643h-4.474v-12.33c0-1.947 1.588-3.46 3.464-3.46h2.093v-5.048c0-2.468-1.56-4.634-3.754-5.492a5.66 5.66 0 0 0-1.37-.348v5.984h-4.69v17.955l-6.207 6.778v9.373c4.547 0 9.6.433 16.166 6.13V213h-48.57v-18.1h-5.918V213h-48.642v-9.302c6.567-5.696 11.547-6.13 16.166-6.13v-9.3l-6-6.778v-17.954h-4.908v-5.985a6 6 0 0 0-1.37.375c-2.175.884-3.682 3-3.682 5.465v5.048h2.093c1.95 0 3.464 1.586 3.464 3.46v12.33h-4.474v7.643l-2.3 2.307h-11.33l-5.413-5.407v-14.926l5.413-5.408h1.804v-5.048c0-8.94 7.073-16.296 15.877-16.728v-4.47h4.258v-1.658l11.403-4.615h3.103v-6.13h-36.3c-12.7 0-23.166-10.383-23.166-23.146v-26.03l-.722-.144c-3.68-.65-6.567-3.966-6.567-7.715V46.87c0-3.677 2.887-7.066 6.567-7.715l.722-.144V23.146C513.29 10.455 523.68 0 536.455 0h127.018c12.7 0 23.166 10.383 23.166 23.146V39.01l.72.144c3.68.65 6.568 4.038 6.64 7.715zm-14.793 55.81V27.112c0-9.41-7.758-17.16-17.178-17.16H537.826c-9.42 0-17.177 7.752-17.177 17.16v74.196c0 9.4 7.757 17.162 17.177 17.162H662.1c8.96 0 16.414-7.012 17.123-15.792h-.017zm1.39 0c-.71 9.538-8.782 17.162-18.497 17.162H537.826c-10.175 0-18.547-8.365-18.547-18.532V27.112c0-10.167 8.372-18.53 18.547-18.53H662.03c10.176 0 18.548 8.364 18.548 18.53v74.196h.072c0 .46-.017.918-.05 1.37z"
    ></path>
  </defs>
</svg>
